#define overtemp_width 115
#define overtemp_height 69
static unsigned char overtemp_bits[] = {
   0x00, 0x07, 0x00, 0x00, 0x00, 0x00, 0x00, 0x00, 0x00, 0x00, 0x00, 0x00,
   0x00, 0x00, 0x00, 0x80, 0x0f, 0x00, 0x00, 0x00, 0x00, 0x00, 0x00, 0x00,
   0x00, 0x00, 0x00, 0x00, 0x00, 0x00, 0xc0, 0x1f, 0x00, 0x00, 0x00, 0x00,
   0x00, 0x00, 0x00, 0x00, 0x00, 0x00, 0x00, 0x00, 0x00, 0xe0, 0x38, 0x00,
   0x00, 0x00, 0x00, 0x00, 0x00, 0x00, 0x00, 0x00, 0x00, 0x00, 0x00, 0x00,
   0x60, 0x32, 0x00, 0x00, 0x00, 0x00, 0x00, 0x00, 0x00, 0x00, 0x00, 0x00,
   0x00, 0x00, 0x00, 0x60, 0x35, 0x00, 0x00, 0x00, 0x00, 0x00, 0x00, 0x00,
   0x00, 0x00, 0x00, 0x00, 0x00, 0x00, 0x60, 0x32, 0x00, 0x00, 0x00, 0x00,
   0x00, 0x00, 0x00, 0x00, 0x00, 0x00, 0x00, 0x00, 0x00, 0x60, 0x35, 0x00,
   0x00, 0x00, 0x00, 0x00, 0x00, 0x00, 0x00, 0x00, 0x00, 0x00, 0x00, 0x00,
   0x60, 0x32, 0x00, 0x00, 0x00, 0x00, 0x00, 0x00, 0x00, 0x00, 0x00, 0x00,
   0x00, 0x00, 0x00, 0x60, 0x35, 0x00, 0xe0, 0xff, 0x0e, 0xe7, 0x9f, 0x3f,
   0x38, 0x38, 0x70, 0x70, 0x00, 0x00, 0x60, 0x32, 0x00, 0xe0, 0xff, 0x0e,
   0xe7, 0x9f, 0x7f, 0x38, 0x38, 0xf8, 0x70, 0x00, 0x00, 0x60, 0x35, 0x00,
   0x00, 0x0e, 0x0e, 0xe7, 0x80, 0xf3, 0x78, 0x3c, 0xf8, 0x70, 0x00, 0x00,
   0x60, 0x32, 0x00, 0x00, 0x0e, 0x0e, 0xe7, 0x80, 0xe3, 0x78, 0x3c, 0xdc,
   0x71, 0x00, 0x00, 0x60, 0x35, 0x00, 0x00, 0x0e, 0x0e, 0xe7, 0x80, 0xe3,
   0xdc, 0x76, 0xdc, 0x71, 0x00, 0x00, 0x60, 0x32, 0x00, 0x00, 0x0e, 0xfe,
   0xe7, 0x8f, 0xf3, 0xdc, 0x76, 0xdc, 0x71, 0x00, 0x00, 0x60, 0x35, 0x00,
   0x00, 0x0e, 0xfe, 0xe7, 0x8f, 0x7f, 0xdc, 0x76, 0x8c, 0x71, 0x00, 0x00,
   0x60, 0x32, 0x00, 0x00, 0x0e, 0x0e, 0xe7, 0x80, 0x3f, 0x9c, 0x73, 0xfe,
   0x73, 0x00, 0x00, 0x60, 0x35, 0x00, 0x00, 0x0e, 0x0e, 0xe7, 0x80, 0x7b,
   0x9c, 0x73, 0xfe, 0x73, 0x00, 0x00, 0x60, 0x32, 0x00, 0x00, 0x0e, 0x0e,
   0xe7, 0x80, 0x73, 0x9c, 0x73, 0x8e, 0x73, 0x00, 0x00, 0x60, 0x35, 0x00,
   0x00, 0x0e, 0x0e, 0xe7, 0x9f, 0xe3, 0x1c, 0x70, 0x07, 0xf7, 0x1f, 0x00,
   0x60, 0x32, 0x00, 0x00, 0x0e, 0x0e, 0xe7, 0x9f, 0xc3, 0x1d, 0x70, 0x07,
   0xf7, 0x1f, 0x00, 0x60, 0x35, 0x00, 0x00, 0x00, 0x00, 0x00, 0x00, 0x00,
   0x00, 0x00, 0x00, 0x00, 0x00, 0x00, 0x60, 0x32, 0x00, 0x00, 0x00, 0x00,
   0x00, 0x00, 0x00, 0x00, 0x00, 0x00, 0x00, 0x00, 0x00, 0x60, 0x35, 0x00,
   0x00, 0x00, 0x00, 0x00, 0x00, 0x00, 0x00, 0x00, 0x00, 0x00, 0x00, 0x00,
   0x60, 0x32, 0x00, 0x00, 0x00, 0x00, 0x00, 0x00, 0x00, 0x00, 0x00, 0x00,
   0x00, 0x00, 0x00, 0x60, 0x35, 0x00, 0x00, 0x00, 0x00, 0x00, 0x00, 0x00,
   0x00, 0x00, 0x00, 0x00, 0x00, 0x00, 0x60, 0x32, 0x00, 0x00, 0x00, 0x00,
   0x00, 0x00, 0x00, 0x00, 0x00, 0x00, 0x00, 0x00, 0x00, 0x60, 0x35, 0x00,
   0x00, 0x00, 0x00, 0x00, 0x00, 0x00, 0x00, 0x00, 0x00, 0x00, 0x00, 0x00,
   0x60, 0x32, 0x00, 0x00, 0x00, 0x00, 0x00, 0x00, 0x00, 0x00, 0x00, 0x00,
   0x00, 0x00, 0x00, 0x60, 0x35, 0x00, 0x7c, 0x38, 0xe0, 0xfe, 0xf9, 0xc3,
   0x01, 0xf8, 0x00, 0x07, 0x7f, 0x00, 0x60, 0x32, 0x00, 0xfe, 0x70, 0x70,
   0xfe, 0xf9, 0xc7, 0x01, 0xfc, 0x81, 0x0f, 0xff, 0x01, 0x60, 0x35, 0x00,
   0xc7, 0x71, 0x70, 0x0e, 0x38, 0xcf, 0x01, 0x8e, 0x83, 0x0f, 0xc7, 0x03,
   0x60, 0x32, 0x80, 0x83, 0x73, 0x70, 0x0e, 0x38, 0xce, 0x01, 0x07, 0xc7,
   0x1d, 0x87, 0x07, 0x60, 0x35, 0x80, 0x83, 0xe3, 0x38, 0x0e, 0x38, 0xce,
   0x01, 0x07, 0xc7, 0x1d, 0x07, 0x07, 0x60, 0x32, 0x80, 0x83, 0xe3, 0x38,
   0xfe, 0x38, 0xcf, 0x01, 0x07, 0xc7, 0x1d, 0x07, 0x07, 0x60, 0x35, 0x80,
   0x83, 0xc3, 0x1d, 0xfe, 0xf8, 0xc7, 0x01, 0x07, 0xc7, 0x18, 0x07, 0x07,
   0x70, 0x72, 0x80, 0x83, 0xc3, 0x1d, 0x0e, 0xf8, 0xc3, 0x01, 0x07, 0xe7,
   0x3f, 0x07, 0x07, 0x38, 0xe5, 0x80, 0x83, 0xc3, 0x1d, 0x0e, 0xb8, 0xc7,
   0x01, 0x07, 0xe7, 0x3f, 0x87, 0x07, 0x9c, 0xca, 0x01, 0xc7, 0x81, 0x0f,
   0x0e, 0x38, 0xc7, 0x01, 0x8e, 0xe3, 0x38, 0xc7, 0x03, 0x4e, 0x95, 0x03,
   0xfe, 0x80, 0x0f, 0xfe, 0x39, 0xce, 0x7f, 0xfc, 0x71, 0x70, 0xff, 0x01,
   0xa6, 0x2a, 0x03, 0x7c, 0x00, 0x0f, 0xfe, 0x39, 0xdc, 0x7f, 0xf8, 0x70,
   0x70, 0x7f, 0x00, 0x56, 0x55, 0x03, 0x00, 0x00, 0x00, 0x00, 0x00, 0x00,
   0x00, 0x00, 0x00, 0x00, 0x00, 0x00, 0xa7, 0x2a, 0x07, 0x00, 0x00, 0x00,
   0x00, 0x00, 0x00, 0x00, 0x00, 0x00, 0x00, 0x00, 0x00, 0x53, 0x55, 0x06,
   0x00, 0x00, 0x00, 0x00, 0x00, 0x00, 0x00, 0x00, 0x00, 0x00, 0x00, 0x00,
   0xa7, 0x2a, 0x07, 0x00, 0x00, 0x00, 0x00, 0x00, 0x00, 0x00, 0x00, 0x00,
   0x00, 0x00, 0x00, 0x56, 0x55, 0x03, 0x00, 0x00, 0x00, 0x00, 0x00, 0x00,
   0x00, 0x00, 0x00, 0x00, 0x00, 0x00, 0xa6, 0x2a, 0x03, 0x00, 0x00, 0x00,
   0x00, 0x00, 0x00, 0x00, 0x00, 0x00, 0x00, 0x00, 0x00, 0x4e, 0x95, 0x03,
   0x00, 0x00, 0x00, 0x00, 0x00, 0x00, 0x00, 0x00, 0x00, 0x00, 0x00, 0x00,
   0x9c, 0xca, 0x01, 0x00, 0x00, 0x00, 0x00, 0x00, 0x00, 0x00, 0x00, 0x00,
   0x00, 0x00, 0x00, 0x38, 0xe0, 0x00, 0x00, 0x00, 0x00, 0x00, 0x00, 0x00,
   0x00, 0x00, 0x00, 0x00, 0x00, 0x00, 0xf0, 0x7d, 0x00, 0x00, 0x00, 0x00,
   0x00, 0x00, 0x00, 0x00, 0x00, 0x00, 0x00, 0x00, 0x00, 0xe0, 0x3f, 0x00,
   0x00, 0x00, 0x00, 0x00, 0x00, 0x00, 0x00, 0x00, 0x00, 0x00, 0x00, 0x00,
   0x00, 0x07, 0x00, 0x00, 0x00, 0x00, 0x00, 0x00, 0x00, 0x00, 0x00, 0x00,
   0x00, 0x00, 0x00, 0x00, 0x00, 0x00, 0x00, 0x00, 0x00, 0x00, 0x00, 0x00,
   0x00, 0x00, 0x00, 0x00, 0x00, 0x00, 0x00, 0x00, 0x00, 0x00, 0x00, 0x00,
   0x00, 0x00, 0x00, 0x00, 0x00, 0x00, 0x00, 0x00, 0x00, 0x00, 0x00, 0x00,
   0x00, 0x00, 0x00, 0x00, 0x00, 0x00, 0x00, 0x00, 0x00, 0x00, 0x00, 0x00,
   0x00, 0x00, 0x00, 0x03, 0x00, 0xc0, 0x00, 0x00, 0x18, 0x00, 0x00, 0x00,
   0x00, 0x00, 0x00, 0x00, 0x00, 0x78, 0x03, 0x30, 0xc6, 0x00, 0x00, 0x18,
   0x00, 0x00, 0x00, 0x00, 0x00, 0x00, 0x00, 0x00, 0x0c, 0x03, 0x30, 0x06,
   0x00, 0x00, 0x18, 0x00, 0x00, 0x00, 0x00, 0x00, 0x00, 0x00, 0x00, 0x0c,
   0xcf, 0xf6, 0xde, 0x1e, 0x0f, 0x9e, 0x33, 0xdb, 0x03, 0x00, 0x00, 0x00,
   0x00, 0x00, 0x3c, 0xdb, 0x36, 0xc6, 0xb6, 0x0d, 0xdb, 0xb6, 0xdb, 0x06,
   0x00, 0x00, 0x00, 0x00, 0x00, 0x78, 0xdb, 0x36, 0xc6, 0xb6, 0x0d, 0xdb,
   0xa6, 0xcb, 0x06, 0x00, 0x00, 0x00, 0x00, 0x00, 0x60, 0xdb, 0x36, 0xc6,
   0xb6, 0x0d, 0xdb, 0xa6, 0xca, 0x06, 0x00, 0x00, 0x00, 0x00, 0x00, 0x60,
   0xdb, 0x36, 0xc6, 0xb6, 0x0d, 0xdb, 0xe6, 0xce, 0xb6, 0x0d, 0x00, 0x00,
   0x00, 0x00, 0x3c, 0x9b, 0xe7, 0xdc, 0x36, 0x0f, 0x9e, 0x43, 0xc6, 0xb6,
   0x0d, 0x00, 0x00, 0x00, 0x00, 0x00, 0x00, 0x00, 0x00, 0x00, 0x0c, 0x00,
   0x00, 0x00, 0x00, 0x00, 0x00, 0x00, 0x00, 0x00, 0x00, 0x00, 0x00, 0x00,
   0x80, 0x07, 0x00, 0x00, 0x00, 0x00, 0x00, 0x00, 0x00, 0x00, 0x00, 0x00,
   0x00, 0x00, 0x00, 0x00, 0x00, 0x00, 0x00, 0x00, 0x00, 0x00, 0x00, 0x00,
   0x00, 0x00, 0x00, 0x00, 0x00, 0x00, 0x00, 0x00, 0x00, 0x00, 0x00, 0x00,
   0x00, 0x00, 0x00 };
