#define undervoltage_width 121
#define undervoltage_height 74
static unsigned char undervoltage_bits[] = {
   0x00, 0xf8, 0xff, 0x00, 0x00, 0x00, 0x00, 0x00, 0x00, 0x00, 0x00, 0x00,
   0x00, 0x00, 0x00, 0x00, 0x00, 0xf8, 0xff, 0x00, 0x00, 0x00, 0x00, 0x00,
   0x00, 0x00, 0x00, 0x00, 0x00, 0x00, 0x00, 0x00, 0x00, 0xf8, 0xff, 0x00,
   0x00, 0x00, 0x00, 0x00, 0x00, 0x00, 0x00, 0x00, 0x00, 0x00, 0x00, 0x00,
   0x00, 0xf8, 0xff, 0x00, 0x00, 0x00, 0x00, 0x00, 0x00, 0x00, 0x00, 0x00,
   0x00, 0x00, 0x00, 0x00, 0x00, 0xf8, 0xff, 0x00, 0x00, 0x00, 0x00, 0x00,
   0x00, 0x00, 0x00, 0x00, 0x00, 0x00, 0x00, 0x00, 0xff, 0xff, 0xff, 0xff,
   0x07, 0x00, 0x00, 0x00, 0x00, 0x00, 0x00, 0x00, 0x00, 0x00, 0x00, 0x00,
   0xff, 0xff, 0xff, 0xff, 0x07, 0x00, 0x00, 0x00, 0x00, 0x00, 0x00, 0x00,
   0x00, 0x00, 0x00, 0x00, 0xff, 0xff, 0xff, 0xff, 0x07, 0x00, 0x00, 0x00,
   0x00, 0x00, 0x00, 0x00, 0x00, 0x00, 0x00, 0x00, 0x07, 0x00, 0x00, 0x00,
   0x07, 0x00, 0x00, 0x00, 0x00, 0x00, 0x00, 0x00, 0x00, 0x00, 0x00, 0x00,
   0x07, 0x00, 0x00, 0x00, 0x07, 0x00, 0x00, 0x00, 0x00, 0x00, 0x00, 0x00,
   0x00, 0x00, 0x00, 0x00, 0x07, 0x00, 0x00, 0x00, 0x07, 0x00, 0x00, 0x00,
   0x00, 0x00, 0x00, 0x00, 0x00, 0x00, 0x00, 0x00, 0x07, 0x00, 0x00, 0x00,
   0x07, 0x00, 0x00, 0x00, 0x00, 0x00, 0x00, 0x00, 0x00, 0x00, 0x00, 0x00,
   0x07, 0x00, 0x00, 0x00, 0x07, 0x00, 0x00, 0x00, 0x00, 0x00, 0x00, 0x00,
   0x00, 0x00, 0x00, 0x00, 0x07, 0x00, 0x00, 0x00, 0x07, 0x00, 0x00, 0x00,
   0x00, 0x00, 0x00, 0x00, 0x00, 0x00, 0x00, 0x00, 0x07, 0x00, 0x00, 0x00,
   0x07, 0x00, 0x00, 0x00, 0x00, 0x00, 0x00, 0x00, 0x00, 0x00, 0x00, 0x00,
   0x07, 0x00, 0x00, 0x00, 0x07, 0x00, 0xf8, 0x8f, 0x03, 0x8e, 0x3f, 0xfc,
   0xdf, 0xc1, 0x01, 0x00, 0x07, 0x00, 0x00, 0x00, 0x07, 0x00, 0xf8, 0x8f,
   0x07, 0x8f, 0xff, 0xfc, 0x9f, 0xe3, 0x00, 0x00, 0x07, 0x00, 0x00, 0x00,
   0x07, 0x00, 0x38, 0x80, 0x07, 0x8f, 0xe3, 0xc1, 0x81, 0xe3, 0x00, 0x00,
   0x07, 0x00, 0x00, 0x00, 0x07, 0x00, 0x38, 0x80, 0x8f, 0x8f, 0xc3, 0xc1,
   0x01, 0x77, 0x00, 0x00, 0x07, 0x00, 0x00, 0x00, 0x07, 0x00, 0x38, 0xc0,
   0x8d, 0x9d, 0xc3, 0xc1, 0x01, 0x77, 0x00, 0x00, 0x07, 0x00, 0x00, 0x00,
   0x07, 0x00, 0xf8, 0xc7, 0xdd, 0x9d, 0xe3, 0xc1, 0x01, 0x3e, 0x00, 0x00,
   0x07, 0x00, 0x00, 0x00, 0x07, 0x00, 0xf8, 0xc7, 0xd9, 0x9c, 0xff, 0xc0,
   0x01, 0x3e, 0x00, 0x00, 0x07, 0x00, 0x00, 0x00, 0x07, 0x00, 0x38, 0xc0,
   0xf9, 0x9c, 0x3f, 0xc0, 0x01, 0x1c, 0x00, 0x00, 0x07, 0x00, 0x00, 0x00,
   0x07, 0x00, 0x38, 0xc0, 0x71, 0x9c, 0x03, 0xc0, 0x01, 0x1c, 0x00, 0x00,
   0x07, 0x00, 0x00, 0x00, 0x07, 0x00, 0x38, 0xc0, 0x71, 0x9c, 0x03, 0xc0,
   0x01, 0x1c, 0x00, 0x00, 0x07, 0x00, 0x00, 0x00, 0x07, 0x00, 0xf8, 0xcf,
   0x01, 0x9c, 0x03, 0xc0, 0x01, 0x1c, 0x00, 0x00, 0x07, 0x00, 0x00, 0x00,
   0x07, 0x00, 0xf8, 0xcf, 0x01, 0x9c, 0x03, 0xc0, 0x01, 0x1c, 0x00, 0x00,
   0x07, 0x00, 0x00, 0x00, 0x07, 0x00, 0x00, 0x00, 0x00, 0x00, 0x00, 0x00,
   0x00, 0x00, 0x00, 0x00, 0x07, 0x00, 0x00, 0x00, 0x07, 0x00, 0x00, 0x00,
   0x00, 0x00, 0x00, 0x00, 0x00, 0x00, 0x00, 0x00, 0x07, 0x00, 0x00, 0x00,
   0x07, 0x00, 0x00, 0x00, 0x00, 0x00, 0x00, 0x00, 0x00, 0x00, 0x00, 0x00,
   0x07, 0x00, 0x00, 0x00, 0x07, 0x00, 0x00, 0x00, 0x00, 0x00, 0x00, 0x00,
   0x00, 0x00, 0x00, 0x00, 0x07, 0x00, 0x00, 0x00, 0x07, 0x00, 0x00, 0x00,
   0x00, 0x00, 0x00, 0x00, 0x00, 0x00, 0x00, 0x00, 0x07, 0x00, 0x00, 0x00,
   0x07, 0x00, 0x00, 0x00, 0x00, 0x00, 0x00, 0x00, 0x00, 0x00, 0x00, 0x00,
   0x07, 0x00, 0x00, 0x00, 0x07, 0x00, 0x00, 0x00, 0x00, 0x00, 0x00, 0x00,
   0x00, 0x00, 0x00, 0x00, 0x07, 0x00, 0x00, 0x00, 0x07, 0x00, 0x00, 0x00,
   0x00, 0x00, 0x00, 0x00, 0x00, 0x00, 0x00, 0x00, 0x07, 0x00, 0x00, 0x00,
   0x07, 0x00, 0x00, 0x00, 0x00, 0x00, 0x00, 0x00, 0x00, 0x00, 0x00, 0x00,
   0x07, 0x00, 0x00, 0x00, 0x07, 0xf8, 0x03, 0x7c, 0xfc, 0xff, 0xff, 0xfe,
   0xf3, 0xc7, 0xc1, 0x01, 0x07, 0x00, 0x00, 0x00, 0x07, 0xf8, 0x07, 0x7c,
   0xfc, 0xff, 0xff, 0xfe, 0xf3, 0x9f, 0xe3, 0x00, 0x07, 0x00, 0x00, 0x00,
   0x07, 0x38, 0x0e, 0xfe, 0xc0, 0x01, 0x0e, 0x0e, 0x70, 0xbc, 0xe3, 0x00,
   0x07, 0x00, 0x00, 0x00, 0x07, 0x38, 0x0e, 0xee, 0xc0, 0x01, 0x0e, 0x0e,
   0x70, 0x38, 0x77, 0x00, 0x07, 0x00, 0x00, 0x00, 0x07, 0x38, 0x0e, 0xee,
   0xc0, 0x01, 0x0e, 0x0e, 0x70, 0x38, 0x77, 0x00, 0x07, 0x00, 0x00, 0x00,
   0x07, 0xf8, 0x07, 0xc7, 0xc1, 0x01, 0x0e, 0xfe, 0x71, 0x3c, 0x3e, 0x00,
   0x07, 0x00, 0x00, 0x00, 0x07, 0xf8, 0x0f, 0xc7, 0xc1, 0x01, 0x0e, 0xfe,
   0xf1, 0x1f, 0x3e, 0x00, 0x07, 0x00, 0x00, 0x00, 0x07, 0x38, 0x1c, 0xff,
   0xc1, 0x01, 0x0e, 0x0e, 0xf0, 0x07, 0x1c, 0x00, 0x07, 0x00, 0x00, 0x00,
   0x07, 0x38, 0x9c, 0xff, 0xc3, 0x01, 0x0e, 0x0e, 0x70, 0x0e, 0x1c, 0x00,
   0x07, 0x00, 0x00, 0x00, 0x07, 0x38, 0x9c, 0x83, 0xc3, 0x01, 0x0e, 0x0e,
   0x70, 0x1c, 0x1c, 0x00, 0x07, 0x00, 0x00, 0x00, 0x07, 0xf8, 0x8f, 0x83,
   0xc3, 0x01, 0x0e, 0xfe, 0x73, 0x38, 0x1c, 0x00, 0x07, 0x00, 0x00, 0x00,
   0x07, 0xf8, 0xc7, 0x01, 0xc7, 0x01, 0x0e, 0xfe, 0x73, 0x78, 0x1c, 0x00,
   0x07, 0x00, 0x00, 0x00, 0x07, 0x00, 0x00, 0x00, 0x00, 0x00, 0x00, 0x00,
   0x00, 0x00, 0x00, 0x00, 0x07, 0x00, 0x00, 0x00, 0x07, 0x00, 0x00, 0x00,
   0x00, 0x00, 0x00, 0x00, 0x00, 0x00, 0x00, 0x00, 0xe7, 0xff, 0xff, 0x3f,
   0x07, 0x00, 0x00, 0x00, 0x00, 0x00, 0x00, 0x00, 0x00, 0x00, 0x00, 0x00,
   0xe7, 0xff, 0xff, 0x3f, 0x07, 0x00, 0x00, 0x00, 0x00, 0x00, 0x00, 0x00,
   0x00, 0x00, 0x00, 0x00, 0xe7, 0xff, 0xff, 0x3f, 0x07, 0x00, 0x00, 0x00,
   0x00, 0x00, 0x00, 0x00, 0x00, 0x00, 0x00, 0x00, 0x07, 0x00, 0x00, 0x00,
   0x07, 0x00, 0x00, 0x00, 0x00, 0x00, 0x00, 0x00, 0x00, 0x00, 0x00, 0x00,
   0x07, 0x00, 0x00, 0x00, 0x07, 0x00, 0x00, 0x00, 0x00, 0x00, 0x00, 0x00,
   0x00, 0x00, 0x00, 0x00, 0xff, 0xff, 0xff, 0xff, 0x07, 0x00, 0x00, 0x00,
   0x00, 0x00, 0x00, 0x00, 0x00, 0x00, 0x00, 0x00, 0xff, 0xff, 0xff, 0xff,
   0x07, 0x00, 0x00, 0x00, 0x00, 0x00, 0x00, 0x00, 0x00, 0x00, 0x00, 0x00,
   0xff, 0xff, 0xff, 0xff, 0x07, 0x00, 0x00, 0x00, 0x00, 0x00, 0x00, 0x00,
   0x00, 0x00, 0x00, 0x00, 0x00, 0x00, 0x00, 0x00, 0x00, 0x00, 0x00, 0x00,
   0x00, 0x00, 0x00, 0x00, 0x00, 0x00, 0x00, 0x00, 0x00, 0x00, 0x00, 0x00,
   0x00, 0x00, 0x00, 0x00, 0x00, 0x00, 0x00, 0x00, 0x00, 0x00, 0x00, 0x00,
   0x00, 0x00, 0x00, 0x00, 0x00, 0x00, 0x00, 0x00, 0x00, 0x00, 0x00, 0x00,
   0x00, 0x00, 0x00, 0x00, 0x00, 0x00, 0x00, 0x00, 0x00, 0x00, 0x00, 0x00,
   0x00, 0x00, 0x00, 0x00, 0x00, 0x00, 0x00, 0x00, 0x00, 0x00, 0x00, 0x00,
   0x00, 0x00, 0x00, 0x00, 0x00, 0x00, 0x00, 0x00, 0x00, 0x00, 0x00, 0x00,
   0x00, 0x00, 0x00, 0x30, 0x00, 0x00, 0x0c, 0x00, 0x80, 0x01, 0x00, 0x00,
   0x00, 0x00, 0x00, 0x00, 0x00, 0x00, 0x80, 0x37, 0x00, 0x63, 0x0c, 0x00,
   0x80, 0x01, 0x00, 0x00, 0x00, 0x00, 0x00, 0x00, 0x00, 0x00, 0xc0, 0x30,
   0x00, 0x63, 0x00, 0x00, 0x80, 0x01, 0x00, 0x00, 0x00, 0x00, 0x00, 0x00,
   0x00, 0x00, 0xc0, 0xf0, 0x6c, 0xef, 0xed, 0xf1, 0xe0, 0x39, 0xb3, 0x3d,
   0x00, 0x00, 0x00, 0x00, 0x00, 0x00, 0xc0, 0xb3, 0x6d, 0x63, 0x6c, 0xdb,
   0xb0, 0x6d, 0xbb, 0x6d, 0x00, 0x00, 0x00, 0x00, 0x00, 0x00, 0x80, 0xb7,
   0x6d, 0x63, 0x6c, 0xdb, 0xb0, 0x6d, 0xba, 0x6c, 0x00, 0x00, 0x00, 0x00,
   0x00, 0x00, 0x00, 0xb6, 0x6d, 0x63, 0x6c, 0xdb, 0xb0, 0x6d, 0xaa, 0x6c,
   0x00, 0x00, 0x00, 0x00, 0x00, 0x00, 0x00, 0xb6, 0x6d, 0x63, 0x6c, 0xdb,
   0xb0, 0x6d, 0xee, 0x6c, 0xdb, 0x00, 0x00, 0x00, 0x00, 0x00, 0xc0, 0xb3,
   0x79, 0xce, 0x6d, 0xf3, 0xe0, 0x39, 0x64, 0x6c, 0xdb, 0x00, 0x00, 0x00,
   0x00, 0x00, 0x00, 0x00, 0x00, 0x00, 0x00, 0xc0, 0x00, 0x00, 0x00, 0x00,
   0x00, 0x00, 0x00, 0x00, 0x00, 0x00, 0x00, 0x00, 0x00, 0x00, 0x00, 0x78,
   0x00, 0x00, 0x00, 0x00, 0x00, 0x00, 0x00, 0x00 };
